<svg xmlns="http://www.w3.org/2000/svg" width="104.94999999999999" height="35" viewBox="0 0 104.94999999999999 35"><rect class="svg__rect" x="0" y="0" width="50.26" height="35" fill="#FFFFFF"/><rect class="svg__rect" x="48.26" y="0" width="56.68999999999999" height="35" fill="#005384"/><path class="svg__text" d="M18.62 21.04L13.72 18.85L13.72 17.72L18.62 15.54L18.62 16.97L15.17 18.30L18.62 19.62L18.62 21.04ZM23.57 22.73L22.45 22.73L25.81 13.47L26.93 13.47L23.57 22.73ZM35.98 18.85L30.92 21.03L30.92 19.63L34.54 18.27L30.92 16.94L30.92 15.54L35.98 17.72L35.98 18.85Z" fill="#005384"/><path class="svg__text" d="M62.02 17.80L62.02 17.80Q62.02 16.54 62.62 15.54Q63.22 14.55 64.27 13.99Q65.32 13.43 66.64 13.43L66.64 13.43Q67.79 13.43 68.71 13.84Q69.64 14.25 70.25 15.02L70.25 15.02L68.74 16.39Q67.93 15.40 66.76 15.40L66.76 15.40Q66.07 15.40 65.54 15.70Q65.01 16 64.71 16.54Q64.42 17.09 64.42 17.80L64.42 17.80Q64.42 18.51 64.71 19.05Q65.01 19.60 65.54 19.90Q66.07 20.20 66.76 20.20L66.76 20.20Q67.93 20.20 68.74 19.22L68.74 19.22L70.25 20.58Q69.64 21.35 68.72 21.76Q67.79 22.17 66.64 22.17L66.64 22.17Q65.32 22.17 64.27 21.61Q63.22 21.05 62.62 20.05Q62.02 19.06 62.02 17.80ZM74.20 21.24L74.20 21.24L74.98 19.49Q75.54 19.86 76.29 20.09Q77.03 20.32 77.75 20.32L77.75 20.32Q79.12 20.32 79.12 19.64L79.12 19.64Q79.12 19.28 78.73 19.11Q78.34 18.93 77.48 18.74L77.48 18.74Q76.53 18.53 75.89 18.30Q75.26 18.06 74.80 17.55Q74.35 17.03 74.35 16.16L74.35 16.16Q74.35 15.39 74.77 14.77Q75.19 14.15 76.02 13.79Q76.86 13.43 78.06 13.43L78.06 13.43Q78.89 13.43 79.69 13.62Q80.50 13.80 81.12 14.17L81.12 14.17L80.38 15.93Q79.18 15.28 78.05 15.28L78.05 15.28Q77.34 15.28 77.02 15.49Q76.70 15.70 76.70 16.04L76.70 16.04Q76.70 16.37 77.08 16.54Q77.47 16.71 78.32 16.89L78.32 16.89Q79.28 17.10 79.91 17.33Q80.54 17.56 81.00 18.07Q81.46 18.58 81.46 19.46L81.46 19.46Q81.46 20.21 81.04 20.83Q80.62 21.44 79.78 21.80Q78.94 22.17 77.74 22.17L77.74 22.17Q76.72 22.17 75.76 21.92Q74.80 21.67 74.20 21.24ZM85.45 21.24L85.45 21.24L86.23 19.49Q86.79 19.86 87.54 20.09Q88.28 20.32 89.00 20.32L89.00 20.32Q90.37 20.32 90.37 19.64L90.37 19.64Q90.37 19.28 89.98 19.11Q89.59 18.93 88.73 18.74L88.73 18.74Q87.78 18.53 87.14 18.30Q86.51 18.06 86.05 17.55Q85.60 17.03 85.60 16.16L85.60 16.16Q85.60 15.39 86.02 14.77Q86.44 14.15 87.27 13.79Q88.11 13.43 89.31 13.43L89.31 13.43Q90.14 13.43 90.94 13.62Q91.75 13.80 92.37 14.17L92.37 14.17L91.63 15.93Q90.43 15.28 89.30 15.28L89.30 15.28Q88.59 15.28 88.27 15.49Q87.95 15.70 87.95 16.04L87.95 16.04Q87.95 16.37 88.33 16.54Q88.72 16.71 89.57 16.89L89.57 16.89Q90.53 17.10 91.16 17.33Q91.79 17.56 92.25 18.07Q92.71 18.58 92.71 19.46L92.71 19.46Q92.71 20.21 92.29 20.83Q91.87 21.44 91.03 21.80Q90.19 22.17 88.99 22.17L88.99 22.17Q87.97 22.17 87.01 21.92Q86.05 21.67 85.45 21.24Z" fill="#FFFFFF" x="61.26"/></svg>